<svg xmlns="http://www.w3.org/2000/svg" viewBox="0 0 140 200" fill="none">
  <g fill="#c5afa2">
    <path d="M2 2C33 27 47 51 54 78C64 116 88 146 131 178" stroke="#c5afa2" stroke-width="1.5" stroke-linecap="round"/>
    <path d="M28 26C52 20 79 35 97 58C68 43 48 46 28 26Z"/>
    <path d="M40 45C28 66 21 94 28 116C40 92 48 71 40 45Z"/>
    <path d="M49 63C74 63 101 78 112 97C89 87 65 88 49 63Z"/>
    <path d="M57 88C42 105 40 131 48 155C52 129 66 114 57 88Z"/>
    <path d="M66 109C85 108 106 117 120 132C101 127 80 130 66 109Z"/>
    <path d="M79 130C66 145 68 166 76 181C76 162 87 147 79 130Z"/>
    <path d="M94 148C109 144 128 151 138 165C121 157 108 165 94 148Z"/>
    <path d="M110 161C101 178 109 192 121 199C114 183 121 174 110 161Z"/>
  </g>
</svg>
